<?xml version="1.0" standalone="no"?>
<!DOCTYPE svg PUBLIC "-//W3C//DTD SVG 20010904//EN"
 "http://www.w3.org/TR/2001/REC-SVG-20010904/DTD/svg10.dtd">
<svg version="1.0" xmlns="http://www.w3.org/2000/svg"
 width="512.000000pt" height="512.000000pt" viewBox="0 0 512.000000 512.000000"
 preserveAspectRatio="xMidYMid meet">
<metadata>
Created by potrace 1.16, written by Peter Selinger 2001-2019
</metadata>
<symbol id="care" viewBox="0 0 512.000000 512.000000">
<g transform="translate(0.000000,512.000000) scale(0.100000,-0.100000)"
fill="viewBox" stroke="viewBox">
<path d="M2448 4348 c-99 -118 -258 -396 -287 -502 -5 -21 -18 -47 -28 -58
-16 -17 -18 -39 -18 -159 l0 -138 45 -46 c30 -31 52 -45 71 -45 25 0 26 3 32
63 6 65 56 230 81 269 8 13 26 54 41 92 24 67 48 104 94 154 46 48 69 25 172
-173 61 -119 83 -185 102 -310 12 -72 15 -80 36 -83 36 -6 70 17 99 68 25 42
27 52 25 155 -1 102 -4 118 -41 215 -22 58 -54 131 -71 164 -17 32 -31 64 -31
71 0 7 -22 46 -48 87 -67 102 -72 108 -120 172 -37 48 -47 56 -76 56 -28 0
-41 -8 -78 -52z"/>
<path d="M1625 3270 c-99 -9 -191 -43 -270 -99 -68 -48 -235 -190 -235 -201 0
-6 -19 -38 -106 -172 -66 -102 -89 -198 -88 -378 0 -123 4 -160 26 -242 14
-54 38 -117 51 -140 14 -24 42 -74 61 -113 20 -38 50 -89 68 -112 18 -23 66
-86 107 -140 79 -104 232 -259 395 -402 209 -182 606 -464 798 -566 77 -41
104 -35 242 51 127 79 166 105 231 155 22 16 65 45 95 63 56 32 223 160 293
222 20 19 41 34 46 34 17 0 390 378 445 450 31 41 67 89 80 105 53 65 180 318
191 380 4 22 16 66 26 97 24 73 26 256 4 343 -36 140 -151 331 -267 443 -96
93 -146 127 -258 181 l-74 35 -166 1 c-146 0 -174 -3 -240 -24 -142 -45 -305
-144 -447 -273 -118 -107 -116 -106 -164 -72 -22 15 -52 41 -65 58 -41 50
-176 147 -289 208 -148 80 -176 91 -279 104 -56 8 -108 13 -116 12 -8 0 -51
-4 -95 -8z"/>
</g>
</symbol>
</svg>
