<?xml version="1.0" standalone="no"?>
<!DOCTYPE svg PUBLIC "-//W3C//DTD SVG 20010904//EN"
 "http://www.w3.org/TR/2001/REC-SVG-20010904/DTD/svg10.dtd">
<svg version="1.0" xmlns="http://www.w3.org/2000/svg"
 width="512.000000pt" height="512.000000pt" viewBox="0 0 512.000000 512.000000"
 preserveAspectRatio="xMidYMid meet">
<metadata>
Created by potrace 1.16, written by Peter Selinger 2001-2019
</metadata>
<symbol id="compromise" viewBox="0 0 512.000000 512.000000">
<g transform="translate(0.000000,512.000000) scale(0.100000,-0.100000)"
fill="viewBox" stroke="viewBox">
<path d="M658 3423 c-8 -10 -18 -23 -21 -29 -10 -18 -46 -209 -57 -304 -6 -47
-17 -125 -25 -175 -8 -49 -26 -184 -40 -300 -14 -115 -34 -266 -45 -335 -37
-246 -62 -473 -55 -508 3 -19 20 -48 36 -64 l29 -30 348 4 c397 3 383 1 428
89 23 46 28 50 52 44 26 -6 183 -109 547 -356 444 -302 449 -305 537 -330 153
-42 330 -35 401 17 79 58 89 63 114 53 40 -15 127 -10 195 11 55 17 73 29 119
79 30 33 63 71 74 86 13 17 38 31 74 40 91 24 159 65 225 136 44 47 81 76 128
99 36 18 88 52 116 76 28 24 57 44 64 44 8 0 23 -19 34 -42 38 -82 28 -80 388
-71 l318 8 20 25 c18 22 20 34 14 115 -4 49 -15 135 -26 190 -10 55 -23 136
-29 180 -13 99 -56 456 -76 630 -8 72 -20 148 -25 170 -6 22 -17 98 -25 169
-18 160 -28 176 -114 176 -61 0 -277 -25 -301 -34 -8 -3 -70 -12 -137 -21 -91
-11 -136 -21 -174 -41 l-52 -26 -156 51 c-86 28 -223 66 -306 85 -82 20 -177
42 -210 50 -115 28 -270 41 -500 41 -239 -1 -322 -11 -400 -53 -20 -11 -71
-18 -150 -23 -66 -4 -202 -12 -302 -19 -163 -12 -189 -12 -240 3 -32 9 -79 18
-104 21 -26 3 -66 12 -90 21 -24 8 -87 20 -140 25 -53 6 -134 17 -180 25 -121
22 -261 20 -281 -2z m1216 -239 c24 -9 20 -29 -24 -117 -55 -108 -70 -175 -70
-298 1 -138 10 -174 59 -223 37 -37 45 -40 105 -44 56 -4 73 -1 118 23 56 29
185 148 220 203 24 39 73 66 159 86 83 19 142 8 221 -41 33 -21 92 -58 132
-81 39 -24 107 -68 151 -97 44 -28 103 -66 130 -83 28 -18 70 -45 95 -62 111
-76 298 -200 373 -247 45 -29 101 -74 125 -100 46 -52 102 -141 102 -165 0
-18 -86 -101 -124 -121 -28 -13 -35 -13 -95 10 -146 54 -293 146 -439 272
-106 93 -120 101 -161 101 -42 0 -65 -37 -58 -92 6 -44 50 -98 139 -167 25
-20 73 -57 105 -82 32 -25 101 -72 153 -103 101 -60 140 -90 140 -105 0 -14
-60 -48 -108 -61 -38 -10 -52 -8 -110 11 -84 28 -177 79 -234 127 -82 72 -200
164 -246 193 -82 52 -152 32 -152 -44 0 -39 4 -46 61 -96 34 -30 88 -75 121
-100 32 -25 80 -63 106 -83 26 -21 89 -65 140 -99 50 -34 92 -68 92 -75 0 -8
-21 -24 -47 -36 -43 -18 -55 -19 -112 -10 -87 15 -191 68 -281 144 -175 147
-223 178 -279 178 -49 0 -61 -14 -61 -71 0 -45 2 -49 63 -101 34 -30 87 -73
117 -95 30 -23 78 -61 105 -86 l50 -45 -39 -17 c-36 -15 -43 -15 -122 4 -94
22 -115 34 -354 198 -30 21 -84 55 -119 76 -35 20 -77 48 -95 62 -17 14 -67
49 -111 79 -44 29 -100 67 -125 84 -25 18 -109 75 -187 128 -167 111 -178 125
-164 211 5 32 14 69 19 83 6 15 13 57 17 95 12 120 36 319 40 335 2 8 9 60 15
115 18 174 28 258 40 328 18 101 31 107 232 107 86 0 163 -3 172 -6z m2445
-13 c29 -16 49 -80 66 -211 16 -121 51 -402 80 -640 8 -63 19 -140 24 -170 18
-93 41 -309 35 -325 -10 -26 -74 -35 -245 -35 -188 0 -207 6 -230 78 -6 20
-22 63 -35 94 -15 37 -24 78 -25 115 0 32 -4 78 -8 103 -30 162 -64 381 -97
630 -40 300 -32 316 171 341 55 6 120 15 145 19 67 11 99 11 119 1z"/>
</g>
</symbol>
</svg>
