<?xml version="1.0" standalone="no"?>
<!DOCTYPE svg PUBLIC "-//W3C//DTD SVG 20010904//EN"
 "http://www.w3.org/TR/2001/REC-SVG-20010904/DTD/svg10.dtd">
<svg version="1.0" xmlns="http://www.w3.org/2000/svg"
 width="512.000000pt" height="512.000000pt" viewBox="0 0 512.000000 512.000000"
 preserveAspectRatio="xMidYMid meet">
<metadata>
Created by potrace 1.16, written by Peter Selinger 2001-2019
</metadata>
<symbol id="create" viewBox="0 0 512.000000 512.000000">
<g transform="translate(0.000000,512.000000) scale(0.100000,-0.100000)"
fill="#viewBox" stroke="viewBox">
<path d="M2175 4485 c-27 -8 -70 -19 -95 -25 -122 -29 -278 -95 -392 -166 -66
-41 -220 -167 -251 -205 -15 -19 -47 -57 -70 -86 -46 -56 -144 -223 -169 -288
-9 -22 -28 -94 -43 -160 -24 -104 -27 -142 -28 -285 0 -105 6 -202 17 -267 27
-172 15 -307 -34 -375 -63 -86 -164 -246 -204 -322 -41 -77 -46 -94 -46 -151
0 -58 2 -65 30 -88 18 -16 53 -30 87 -36 91 -18 106 -24 125 -57 17 -30 17
-33 -2 -89 -11 -32 -20 -81 -20 -109 0 -46 3 -54 39 -87 22 -19 42 -49 46 -65
13 -63 22 -79 55 -102 56 -38 64 -62 51 -156 -22 -157 -7 -230 59 -290 55 -49
120 -61 258 -46 58 6 109 13 112 15 4 2 46 9 95 15 136 17 298 84 503 209 167
102 190 119 332 264 64 64 124 117 134 117 20 0 66 -43 66 -62 0 -23 -100
-147 -163 -203 -136 -119 -243 -191 -441 -295 l-161 -85 0 -65 c1 -84 19 -122
65 -132 19 -4 157 -3 305 2 566 22 830 31 1132 39 171 5 316 12 322 15 16 10
14 98 -3 122 -28 39 -65 147 -88 252 -21 96 -23 133 -23 362 1 246 2 258 27
341 38 124 44 136 176 309 36 47 65 111 136 293 14 37 26 75 26 83 0 9 10 55
22 103 32 127 30 385 -5 561 -62 309 -211 567 -458 791 -106 95 -217 173 -299
209 -30 13 -73 31 -95 41 -99 44 -363 117 -579 159 -78 16 -491 11 -551 -5z
m770 -397 c17 -8 29 -25 37 -52 15 -54 25 -66 57 -66 18 0 40 13 66 40 21 22
45 40 53 40 7 0 35 -9 62 -21 55 -24 66 -42 61 -107 -5 -77 57 -107 131 -62
44 27 52 26 98 -16 51 -46 56 -64 30 -113 -36 -72 -21 -105 47 -100 57 4 81
-8 103 -51 29 -58 26 -84 -15 -116 -31 -23 -35 -32 -35 -72 0 -50 21 -82 52
-82 27 0 74 -26 82 -45 3 -9 6 -36 6 -60 0 -49 -9 -57 -84 -79 -36 -10 -41
-16 -44 -45 -3 -26 4 -40 37 -76 23 -25 41 -47 41 -49 0 -3 -9 -30 -21 -60
-23 -63 -38 -71 -116 -67 -43 2 -53 -1 -62 -17 -17 -32 -13 -77 9 -115 l21
-35 -34 -43 c-44 -58 -77 -70 -117 -41 -34 25 -82 29 -100 7 -9 -11 -11 -34
-6 -76 l6 -60 -55 -25 c-63 -29 -85 -26 -115 17 -18 25 -28 29 -67 29 -50 0
-83 -20 -83 -51 0 -31 -12 -49 -41 -64 -60 -32 -132 -3 -160 63 -24 55 -55 57
-110 7 -45 -40 -50 -41 -105 -16 -57 26 -73 51 -66 107 3 34 0 49 -13 64 -24
26 -79 26 -112 0 -36 -28 -60 -25 -95 13 -60 63 -63 72 -38 111 13 23 20 48
18 68 -3 33 -3 33 -58 34 -30 0 -61 1 -68 2 -16 2 -72 90 -72 113 0 10 18 32
40 49 37 29 40 35 40 81 0 53 -15 70 -73 83 -42 10 -67 41 -67 82 0 51 15 72
63 85 57 17 67 26 67 65 0 26 -7 39 -35 59 -47 36 -52 58 -24 116 25 54 42 63
112 60 26 -1 55 3 63 9 23 20 18 95 -8 131 -21 28 -21 32 -8 56 8 14 34 39 58
56 l42 31 30 -22 c32 -24 89 -29 108 -10 15 15 16 62 2 88 -16 30 0 51 58 77
65 29 95 22 127 -30 17 -27 26 -32 60 -32 42 0 57 17 70 78 11 52 91 82 150
55z"/>
<path d="M2775 3771 c-128 -17 -235 -87 -332 -216 -86 -114 -122 -243 -110
-398 9 -111 26 -163 81 -246 78 -117 195 -205 316 -238 95 -25 276 -23 353 5
127 46 268 166 321 275 84 170 69 441 -31 579 -33 46 -157 167 -200 195 -57
38 -268 61 -398 44z"/>
</g>
</symbol>
</svg>
