<?xml version="1.0" standalone="no"?>
<!DOCTYPE svg PUBLIC "-//W3C//DTD SVG 20010904//EN"
 "http://www.w3.org/TR/2001/REC-SVG-20010904/DTD/svg10.dtd">
<svg version="1.0" xmlns="http://www.w3.org/2000/svg"
 width="512.000000pt" height="512.000000pt" viewBox="0 0 512.000000 512.000000"
 preserveAspectRatio="xMidYMid meet">
<metadata>
Created by potrace 1.16, written by Peter Selinger 2001-2019
</metadata>
<symbol id="family" viewBox="0 0 512.000000 512.000000">
<g transform="translate(0.000000,512.000000) scale(0.100000,-0.100000)"
fill="viewBox" stroke="viewBox">
<path d="M2295 4344 c-82 -43 -119 -109 -120 -215 0 -66 4 -81 27 -116 15 -23
44 -54 64 -70 31 -23 49 -28 112 -32 100 -5 142 9 190 64 58 66 77 156 52 245
-11 40 -81 114 -123 129 -43 17 -167 13 -202 -5z"/>
<path d="M4075 4345 c-50 -17 -117 -89 -133 -142 -17 -58 -14 -142 7 -188 64
-140 258 -181 372 -78 61 55 79 99 79 188 0 89 -11 115 -73 172 -67 62 -162
80 -252 48z"/>
<path d="M2186 3851 c-3 -5 -44 -109 -91 -232 -47 -123 -90 -234 -95 -247 -29
-68 -1 -67 95 3 40 30 76 55 78 55 12 0 19 -75 42 -413 14 -199 25 -370 25
-379 0 -10 6 -18 14 -18 8 0 40 68 82 175 51 131 70 172 77 159 5 -8 27 -84
48 -167 22 -83 42 -153 44 -155 2 -3 10 -2 17 1 10 3 27 117 61 393 26 214 52
393 57 398 5 5 41 -15 85 -48 43 -31 84 -56 91 -56 26 0 14 45 -79 285 -89
230 -93 240 -122 246 -47 10 -423 10 -429 0z"/>
<path d="M4005 3818 c-10 -18 -79 -126 -152 -241 -73 -114 -133 -214 -133
-222 0 -22 20 -19 105 20 43 20 80 33 84 30 3 -4 -11 -72 -32 -153 -21 -81
-37 -150 -37 -154 0 -5 22 -8 49 -8 78 0 72 12 141 -275 52 -214 49 -205 65
-205 15 0 15 1 40 110 27 116 29 115 66 -35 17 -69 20 -75 34 -75 8 0 17 10
20 23 32 144 109 434 117 444 6 8 33 13 64 13 67 0 66 -2 20 175 -19 72 -32
133 -28 137 4 3 36 -7 71 -23 71 -32 111 -37 111 -14 0 8 -68 121 -151 250
l-151 235 -142 0 -142 0 -19 -32z"/>
<path d="M3195 3786 c-85 -39 -129 -159 -91 -249 7 -18 29 -46 49 -64 19 -17
33 -34 30 -37 -4 -3 -23 -6 -43 -6 -21 0 -42 -6 -47 -12 -16 -22 -163 -358
-163 -373 0 -23 24 -18 87 20 l58 35 6 -27 c4 -16 26 -128 49 -250 44 -229 57
-260 79 -190 5 17 20 70 31 117 28 109 36 124 46 85 39 -159 62 -230 76 -233
12 -2 23 39 56 205 23 114 42 225 42 245 0 20 5 40 10 43 6 4 40 -12 75 -34
72 -46 95 -51 95 -21 0 11 -41 101 -90 200 l-90 180 -48 1 c-50 0 -109 17 -66
18 31 1 101 82 110 126 3 20 4 59 2 87 -5 43 -11 56 -51 96 -45 45 -49 46
-114 49 -43 2 -79 -2 -98 -11z"/>
<path d="M4718 2439 c-21 -5 -172 -71 -335 -148 -164 -77 -395 -184 -513 -238
l-215 -99 -24 -74 c-20 -64 -32 -83 -85 -136 -43 -43 -79 -68 -121 -85 l-60
-24 -705 -3 c-388 -1 -715 0 -727 3 -27 6 -41 49 -23 70 11 13 108 15 742 15
599 0 734 2 761 14 40 17 112 91 127 130 13 36 3 139 -17 181 -22 43 -72 93
-118 118 -39 21 -55 22 -455 28 -467 7 -427 1 -765 104 -252 76 -325 89 -525
89 -283 0 -383 -26 -706 -186 -115 -57 -242 -118 -281 -136 l-73 -32 0 -575
c0 -518 2 -575 16 -575 9 0 50 9 92 19 316 80 705 118 1097 108 270 -8 424
-25 632 -72 257 -59 355 -48 614 68 428 192 1146 561 1662 855 254 144 327
226 327 366 0 80 -13 110 -75 164 -64 56 -151 74 -247 51z"/>

<path d="M50 1425 l0 -765 230 0 230 0 0 765 0 765 -230 0 -230 0 0 -765z"/>
</g>
</symbol>

</svg>
