<?xml version="1.0" standalone="no"?>
<!DOCTYPE svg PUBLIC "-//W3C//DTD SVG 20010904//EN"
 "http://www.w3.org/TR/2001/REC-SVG-20010904/DTD/svg10.dtd">
<svg version="1.0" xmlns="http://www.w3.org/2000/svg"
 width="512.000000pt" height="512.000000pt" viewBox="0 0 512.000000 512.000000"
 preserveAspectRatio="xMidYMid meet">
<metadata>
Created by potrace 1.16, written by Peter Selinger 2001-2019
</metadata>
<symbol id="results" viewBox="0 0 512.000000 512.000000">
<g transform="translate(0.000000,512.000000) scale(0.100000,-0.100000)"
fill="#viewBox" stroke="viewBox">
<path d="M2390 4041 c-170 -26 -214 -38 -339 -98 -337 -159 -596 -418 -752
-751 -97 -205 -122 -337 -75 -381 23 -21 33 -23 184 -24 157 -2 161 -2 186 23
15 13 34 48 43 80 20 70 45 123 107 230 71 122 236 283 379 368 115 68 202
102 347 134 308 68 645 -28 910 -260 99 -86 181 -195 253 -337 45 -90 64 -141
99 -270 6 -22 11 -112 12 -200 1 -222 -17 -298 -117 -505 -49 -101 -76 -141
-140 -213 -111 -124 -227 -214 -360 -280 -136 -67 -230 -94 -372 -107 -191
-19 -332 9 -544 104 -267 121 -481 369 -576 667 -43 132 -37 129 -236 129
l-168 0 -21 -27 c-19 -24 -22 -36 -17 -93 11 -127 112 -385 198 -502 16 -23
29 -46 29 -53 0 -32 172 -215 317 -336 239 -200 572 -318 899 -319 334 -1 599
75 859 244 109 71 307 261 375 361 187 270 268 495 291 809 11 142 2 321 -22
441 -17 82 -98 317 -124 360 -14 22 -38 68 -54 101 -17 34 -57 95 -90 135 -89
111 -289 303 -346 332 -28 14 -60 36 -73 49 -22 24 -59 43 -217 112 -118 51
-175 65 -329 81 -177 19 -370 17 -516 -4z"/>
<path d="M2540 3404 c-92 -14 -209 -56 -315 -112 -98 -51 -259 -221 -311 -328
-37 -77 -46 -152 -20 -173 10 -8 79 -13 218 -14 l204 -2 59 53 c33 30 96 72
140 94 77 39 81 40 165 36 104 -5 181 -40 263 -120 106 -105 154 -289 108
-414 -48 -128 -109 -195 -230 -253 -162 -77 -294 -45 -454 108 l-58 56 -199 3
c-190 3 -199 3 -219 -17 -97 -97 147 -439 404 -567 94 -46 253 -69 440 -61
232 10 339 58 529 236 113 108 196 258 222 403 48 270 12 519 -99 686 -59 88
-210 238 -271 269 -199 100 -284 124 -440 122 -61 -1 -122 -3 -136 -5z"/>
<path d="M557 3001 c-203 -6 -207 -8 -207 -64 0 -20 20 -50 79 -115 43 -48 91
-98 106 -112 41 -38 55 -73 55 -139 l0 -61 -68 -72 c-176 -189 -183 -199 -180
-231 5 -52 27 -57 276 -57 182 0 230 3 257 16 18 8 74 62 125 120 50 57 111
115 134 129 l43 25 409 -12 c225 -7 579 -13 787 -13 l378 0 29 35 c26 30 29
43 30 98 0 57 -3 65 -34 99 l-34 37 -423 8 c-1136 22 -1130 22 -1174 45 -22
12 -83 66 -135 119 -52 53 -109 107 -126 120 -38 29 -82 33 -327 25z"/>
</g>
</symbol>
</svg>
